<svg xmlns="http://www.w3.org/2000/svg" fill="none" viewBox="0 0 118 34">
  <path fill="#FFA000" fill-rule="evenodd"
    d="M111.52 8.96C106.1 1.44 95.92-.07 88.74 5.6c-.63.5-1.32 1.2-1.86 1.77A16.4 16.4 0 0 1 100.53 0c5.72 0 10.76 2.93 13.67 7.37l-2.66 1.65-.03-.06ZM91.14 10h-.02a11.32 11.32 0 0 1 9.42-5.02c3.93 0 7.4 2 9.42 5.03l-2.57 1.6A10.93 10.93 0 0 0 91.14 10ZM118 7.7l-17.45 10.85L83.09 7.7v2.93l17.45 10.85L118 10.63V7.7Zm-22.61 4.92c.92-.64 1.99-1.01 3.13-1.01 1.87 0 3.56 1 4.71 2.58l2.48-1.54a6.3 6.3 0 0 0-10.32-.03Z"
    clip-rule="evenodd"></path>
  <path fill="#ffffff" fill-rule="evenodd"
    d="M15.88 27.52V17.16h3.42V27.4c0 2.48 2.06 3.12 3.27 3.12 2.59 0 3.43-1.51 3.43-2.38V17.17h3.42v16.06h-1.99l-1.3-1.79a5.96 5.96 0 0 1-4.72 2.15c-3.26 0-5.53-2.18-5.53-6.07ZM54.68 11.44v21.78h1.94l1.24-1.8a5.92 5.92 0 0 0 4.7 2.17c3 0 5.58-1.85 5.58-5.9v-5c0-4.05-2.55-5.9-5.7-5.9-2.18 0-3.67.98-4.43 1.94v-7.3h-3.33ZM61.6 30.5c-2.11 0-3.64-1.01-3.59-3.19v-4.4c0-1.75 1.38-3.04 3.62-3.04 1.58 0 3.17 1.15 3.17 3.06v4.51c0 1.92-1.6 3.06-3.2 3.06ZM41.9 11.45v7.3a5.55 5.55 0 0 0-4.42-1.96c-3.16 0-5.7 1.86-5.7 5.9v5.01c0 4.05 2.57 5.9 5.57 5.9a5.92 5.92 0 0 0 4.7-2.16l1.25 1.8h1.94v-21.8H41.9Zm-6.79 16v-4.5c0-1.92 1.6-3.07 3.17-3.07 2.25 0 3.62 1.29 3.62 3.04v4.4c.05 2.18-1.48 3.2-3.59 3.2-1.6 0-3.2-1.15-3.2-3.07ZM70.46 33.23h3.41V11.45h-3.41v21.78ZM48.3 33.23h3.4V17.16h-3.4v16.07ZM50 15.23c1.08 0 1.95-.87 1.95-1.93 0-1.07-.87-1.94-1.95-1.94a1.94 1.94 0 1 0 0 3.87ZM83.27 30.51c-2.33 0-3.48-1.2-3.48-2.87V26.3h10.13V22.7c0-3.71-2.61-5.9-6.65-5.9-4.2 0-6.9 2.31-6.9 5.96v4.94c0 3.7 2.7 5.9 6.9 5.9 3.14 0 5.4-1.26 6.34-3.4l-2.48-1.53c-.88 1.23-2.1 1.84-3.86 1.84Zm-3.48-7.81c0-1.67 1.15-2.82 3.36-2.82 2.2 0 3.35 1.15 3.35 2.82v1.01h-6.7V22.7ZM7.08 16.8c-3.31 0-5.46 1.32-6.3 3.32l2.67 1.66c1.12-1.77 2.18-1.9 3.63-1.9 2.08 0 3.04 1 3.04 2.57v1.25H7.26c-2.09 0-7.26.72-7.26 5.18 0 3.15 2.4 4.72 5.31 4.72 2.3 0 4-1.05 4.94-2.16l1.3 1.8h2v-11c0-3.16-2.12-5.45-6.47-5.45Zm3.04 11.29c-.02.24-.03.55-.37.98-.52.74-1.82 1.44-3.37 1.44-1.62 0-2.8-.65-2.8-2 0-1.93 3.15-2.35 5.07-2.43h1.47v2Z"
    clip-rule="evenodd"></path>
</svg>